<svg width="196" height="48" viewBox="0 0 196 48" fill="none" xmlns="http://www.w3.org/2000/svg">
<path d="M48.25 24.8672C48.25 26.1589 47.9531 27.1979 47.3594 27.9844C46.7656 28.7656 45.9688 29.1562 44.9688 29.1562C43.901 29.1562 43.0755 28.7786 42.4922 28.0234L42.4219 29H41.0938V17H42.5391V21.4766C43.1224 20.7526 43.9271 20.3906 44.9531 20.3906C45.9792 20.3906 46.7839 20.7786 47.3672 21.5547C47.9557 22.3307 48.25 23.3932 48.25 24.7422V24.8672ZM46.8047 24.7031C46.8047 23.7188 46.6146 22.9583 46.2344 22.4219C45.8542 21.8854 45.3073 21.6172 44.5938 21.6172C43.6406 21.6172 42.9557 22.0599 42.5391 22.9453V26.6016C42.9818 27.487 43.6719 27.9297 44.6094 27.9297C45.3021 27.9297 45.8411 27.6615 46.2266 27.125C46.612 26.5885 46.8047 25.7812 46.8047 24.7031ZM51.6484 29H50.2031V17H51.6484V29ZM59.1875 28.1641C58.625 28.8255 57.7995 29.1562 56.7109 29.1562C55.8099 29.1562 55.1224 28.8958 54.6484 28.375C54.1797 27.849 53.9427 27.0729 53.9375 26.0469V20.5469H55.3828V26.0078C55.3828 27.2891 55.9036 27.9297 56.9453 27.9297C58.0495 27.9297 58.7839 27.5182 59.1484 26.6953V20.5469H60.5938V29H59.2188L59.1875 28.1641ZM66.3047 29.1562C65.1589 29.1562 64.2266 28.7812 63.5078 28.0312C62.7891 27.276 62.4297 26.2682 62.4297 25.0078V24.7422C62.4297 23.9036 62.5885 23.1562 62.9062 22.5C63.2292 21.8385 63.6771 21.3229 64.25 20.9531C64.8281 20.5781 65.4531 20.3906 66.125 20.3906C67.224 20.3906 68.0781 20.7526 68.6875 21.4766C69.2969 22.2005 69.6016 23.237 69.6016 24.5859V25.1875H63.875C63.8958 26.0208 64.138 26.6953 64.6016 27.2109C65.0703 27.7214 65.6641 27.9766 66.3828 27.9766C66.8932 27.9766 67.3255 27.8724 67.6797 27.6641C68.0339 27.4557 68.3438 27.1797 68.6094 26.8359L69.4922 27.5234C68.7839 28.612 67.7214 29.1562 66.3047 29.1562ZM66.125 21.5781C65.5417 21.5781 65.0521 21.7917 64.6562 22.2188C64.2604 22.6406 64.0156 23.2344 63.9219 24H68.1562V23.8906C68.1146 23.1562 67.9167 22.5885 67.5625 22.1875C67.2083 21.7812 66.7292 21.5781 66.125 21.5781Z" fill="black" fill-opacity="0.541327"/>
<circle cx="12" cy="24" r="9.5" fill="#41B6F7" stroke="black"/>
</svg>
