<svg width="196" height="48" viewBox="0 0 196 48" fill="none" xmlns="http://www.w3.org/2000/svg">
<path d="M66.6874 25.3906C66.5468 26.5938 66.1014 27.5234 65.3514 28.1797C64.6066 28.8307 63.6145 29.1562 62.3749 29.1562C61.0311 29.1562 59.953 28.6745 59.1405 27.7109C58.3332 26.7474 57.9296 25.4583 57.9296 23.8438V22.75C57.9296 21.6927 58.1171 20.763 58.4921 19.9609C58.8723 19.1589 59.4087 18.5443 60.1014 18.1172C60.7941 17.6849 61.5962 17.4688 62.5077 17.4688C63.716 17.4688 64.6848 17.8073 65.4139 18.4844C66.1431 19.1562 66.5676 20.0885 66.6874 21.2812H65.1796C65.0494 20.375 64.7655 19.7188 64.328 19.3125C63.8957 18.9062 63.2889 18.7031 62.5077 18.7031C61.5494 18.7031 60.7968 19.0573 60.2499 19.7656C59.7082 20.474 59.4374 21.4818 59.4374 22.7891V23.8906C59.4374 25.125 59.6952 26.1068 60.2108 26.8359C60.7264 27.5651 61.4478 27.9297 62.3749 27.9297C63.2082 27.9297 63.8462 27.7422 64.2889 27.3672C64.7369 26.987 65.0337 26.3281 65.1796 25.3906H66.6874ZM69.9608 21.5703C70.6014 20.7839 71.4348 20.3906 72.4608 20.3906C74.2473 20.3906 75.1483 21.3984 75.1639 23.4141V29H73.7186V23.4062C73.7134 22.7969 73.5728 22.3464 73.2968 22.0547C73.0259 21.763 72.6014 21.6172 72.0233 21.6172C71.5546 21.6172 71.1431 21.7422 70.7889 21.9922C70.4348 22.2422 70.1587 22.5703 69.9608 22.9766V29H68.5155V17H69.9608V21.5703ZM76.9452 24.6953C76.9452 23.8672 77.1066 23.1224 77.4296 22.4609C77.7577 21.7995 78.2108 21.2891 78.7889 20.9297C79.3723 20.5703 80.0363 20.3906 80.7811 20.3906C81.9322 20.3906 82.8619 20.7891 83.5702 21.5859C84.2837 22.3828 84.6405 23.4427 84.6405 24.7656V24.8672C84.6405 25.6901 84.4816 26.4297 84.1639 27.0859C83.8514 27.737 83.4009 28.2448 82.8124 28.6094C82.229 28.974 81.5572 29.1562 80.7968 29.1562C79.6509 29.1562 78.7212 28.7578 78.0077 27.9609C77.2994 27.1641 76.9452 26.1094 76.9452 24.7969V24.6953ZM78.3983 24.8672C78.3983 25.8047 78.6145 26.5573 79.0468 27.125C79.4843 27.6927 80.0676 27.9766 80.7968 27.9766C81.5311 27.9766 82.1145 27.6901 82.5468 27.1172C82.979 26.5391 83.1952 25.7318 83.1952 24.6953C83.1952 23.7682 82.9738 23.0182 82.5311 22.4453C82.0936 21.8672 81.5103 21.5781 80.7811 21.5781C80.0676 21.5781 79.4921 21.862 79.0546 22.4297C78.6171 22.9974 78.3983 23.8099 78.3983 24.8672ZM86.0702 24.6953C86.0702 23.8672 86.2316 23.1224 86.5546 22.4609C86.8827 21.7995 87.3358 21.2891 87.9139 20.9297C88.4973 20.5703 89.1613 20.3906 89.9061 20.3906C91.0572 20.3906 91.9869 20.7891 92.6952 21.5859C93.4087 22.3828 93.7655 23.4427 93.7655 24.7656V24.8672C93.7655 25.6901 93.6066 26.4297 93.2889 27.0859C92.9764 27.737 92.5259 28.2448 91.9374 28.6094C91.354 28.974 90.6822 29.1562 89.9218 29.1562C88.7759 29.1562 87.8462 28.7578 87.1327 27.9609C86.4244 27.1641 86.0702 26.1094 86.0702 24.7969V24.6953ZM87.5233 24.8672C87.5233 25.8047 87.7395 26.5573 88.1718 27.125C88.6093 27.6927 89.1926 27.9766 89.9218 27.9766C90.6561 27.9766 91.2395 27.6901 91.6718 27.1172C92.104 26.5391 92.3202 25.7318 92.3202 24.6953C92.3202 23.7682 92.0988 23.0182 91.6561 22.4453C91.2186 21.8672 90.6353 21.5781 89.9061 21.5781C89.1926 21.5781 88.6171 21.862 88.1796 22.4297C87.7421 22.9974 87.5233 23.8099 87.5233 24.8672ZM100.5 26.7578C100.5 26.3672 100.351 26.0651 100.055 25.8516C99.7629 25.6328 99.2499 25.4453 98.5155 25.2891C97.7863 25.1328 97.2056 24.9453 96.7733 24.7266C96.3462 24.5078 96.0285 24.2474 95.8202 23.9453C95.6171 23.6432 95.5155 23.2839 95.5155 22.8672C95.5155 22.1745 95.8072 21.5885 96.3905 21.1094C96.979 20.6302 97.729 20.3906 98.6405 20.3906C99.5988 20.3906 100.375 20.638 100.969 21.1328C101.568 21.6276 101.867 22.2604 101.867 23.0312H100.414C100.414 22.6354 100.245 22.2943 99.9061 22.0078C99.5728 21.7214 99.1509 21.5781 98.6405 21.5781C98.1145 21.5781 97.703 21.6927 97.4061 21.9219C97.1093 22.151 96.9608 22.4505 96.9608 22.8203C96.9608 23.1693 97.0988 23.4323 97.3749 23.6094C97.6509 23.7865 98.1483 23.9557 98.8671 24.1172C99.591 24.2786 100.177 24.4714 100.625 24.6953C101.073 24.9193 101.404 25.1901 101.617 25.5078C101.836 25.8203 101.945 26.2031 101.945 26.6562C101.945 27.4115 101.643 28.0182 101.039 28.4766C100.435 28.9297 99.6509 29.1562 98.6874 29.1562C98.0103 29.1562 97.4113 29.0365 96.8905 28.7969C96.3697 28.5573 95.9608 28.224 95.6639 27.7969C95.3723 27.3646 95.2264 26.8984 95.2264 26.3984H96.6718C96.6978 26.8828 96.8905 27.2682 97.2499 27.5547C97.6145 27.8359 98.0936 27.9766 98.6874 27.9766C99.2343 27.9766 99.6718 27.8672 99.9999 27.6484C100.333 27.4245 100.5 27.1276 100.5 26.7578ZM107.336 29.1562C106.19 29.1562 105.258 28.7812 104.539 28.0312C103.82 27.276 103.461 26.2682 103.461 25.0078V24.7422C103.461 23.9036 103.62 23.1562 103.937 22.5C104.26 21.8385 104.708 21.3229 105.281 20.9531C105.859 20.5781 106.484 20.3906 107.156 20.3906C108.255 20.3906 109.109 20.7526 109.719 21.4766C110.328 22.2005 110.633 23.237 110.633 24.5859V25.1875H104.906C104.927 26.0208 105.169 26.6953 105.633 27.2109C106.101 27.7214 106.695 27.9766 107.414 27.9766C107.924 27.9766 108.357 27.8724 108.711 27.6641C109.065 27.4557 109.375 27.1797 109.641 26.8359L110.523 27.5234C109.815 28.612 108.752 29.1562 107.336 29.1562ZM107.156 21.5781C106.573 21.5781 106.083 21.7917 105.687 22.2188C105.292 22.6406 105.047 23.2344 104.953 24H109.187V23.8906C109.146 23.1562 108.948 22.5885 108.594 22.1875C108.239 21.7812 107.76 21.5781 107.156 21.5781ZM119.672 27.9766C120.187 27.9766 120.638 27.8203 121.023 27.5078C121.409 27.1953 121.622 26.8047 121.664 26.3359H123.031C123.005 26.8203 122.838 27.2812 122.531 27.7188C122.224 28.1562 121.812 28.5052 121.297 28.7656C120.786 29.026 120.245 29.1562 119.672 29.1562C118.521 29.1562 117.604 28.7734 116.922 28.0078C116.245 27.237 115.906 26.1849 115.906 24.8516V24.6094C115.906 23.7865 116.057 23.0547 116.359 22.4141C116.661 21.7734 117.094 21.276 117.656 20.9219C118.224 20.5677 118.893 20.3906 119.664 20.3906C120.612 20.3906 121.398 20.6745 122.023 21.2422C122.654 21.8099 122.989 22.5469 123.031 23.4531H121.664C121.622 22.9062 121.414 22.4583 121.039 22.1094C120.669 21.7552 120.211 21.5781 119.664 21.5781C118.93 21.5781 118.359 21.8438 117.953 22.375C117.552 22.901 117.351 23.6641 117.351 24.6641V24.9375C117.351 25.9115 117.552 26.6615 117.953 27.1875C118.354 27.7135 118.927 27.9766 119.672 27.9766ZM124.273 24.6953C124.273 23.8672 124.435 23.1224 124.758 22.4609C125.086 21.7995 125.539 21.2891 126.117 20.9297C126.7 20.5703 127.364 20.3906 128.109 20.3906C129.26 20.3906 130.19 20.7891 130.898 21.5859C131.612 22.3828 131.969 23.4427 131.969 24.7656V24.8672C131.969 25.6901 131.81 26.4297 131.492 27.0859C131.18 27.737 130.729 28.2448 130.141 28.6094C129.557 28.974 128.885 29.1562 128.125 29.1562C126.979 29.1562 126.049 28.7578 125.336 27.9609C124.627 27.1641 124.273 26.1094 124.273 24.7969V24.6953ZM125.726 24.8672C125.726 25.8047 125.943 26.5573 126.375 27.125C126.812 27.6927 127.396 27.9766 128.125 27.9766C128.859 27.9766 129.443 27.6901 129.875 27.1172C130.307 26.5391 130.523 25.7318 130.523 24.6953C130.523 23.7682 130.302 23.0182 129.859 22.4453C129.422 21.8672 128.838 21.5781 128.109 21.5781C127.396 21.5781 126.82 21.862 126.383 22.4297C125.945 22.9974 125.726 23.8099 125.726 24.8672ZM135.351 29H133.906V17H135.351V29ZM137.289 24.6953C137.289 23.8672 137.45 23.1224 137.773 22.4609C138.101 21.7995 138.555 21.2891 139.133 20.9297C139.716 20.5703 140.38 20.3906 141.125 20.3906C142.276 20.3906 143.206 20.7891 143.914 21.5859C144.627 22.3828 144.984 23.4427 144.984 24.7656V24.8672C144.984 25.6901 144.825 26.4297 144.508 27.0859C144.195 27.737 143.745 28.2448 143.156 28.6094C142.573 28.974 141.901 29.1562 141.141 29.1562C139.995 29.1562 139.065 28.7578 138.351 27.9609C137.643 27.1641 137.289 26.1094 137.289 24.7969V24.6953ZM138.742 24.8672C138.742 25.8047 138.958 26.5573 139.391 27.125C139.828 27.6927 140.411 27.9766 141.141 27.9766C141.875 27.9766 142.458 27.6901 142.891 27.1172C143.323 26.5391 143.539 25.7318 143.539 24.6953C143.539 23.7682 143.318 23.0182 142.875 22.4453C142.437 21.8672 141.854 21.5781 141.125 21.5781C140.411 21.5781 139.836 21.862 139.398 22.4297C138.961 22.9974 138.742 23.8099 138.742 24.8672ZM150.883 21.8438C150.664 21.8073 150.427 21.7891 150.172 21.7891C149.224 21.7891 148.581 22.1927 148.242 23V29H146.797V20.5469H148.203L148.226 21.5234C148.7 20.7682 149.372 20.3906 150.242 20.3906C150.523 20.3906 150.737 20.4271 150.883 20.5V21.8438Z" fill="black" fill-opacity="0.541327"/>
<g clip-path="url(#clip0)">
<path d="M3.98242 27.0176C3.51367 27.4863 3.25 28.1223 3.25 28.7856V30.5625L2 32.75L3.25 34L5.4375 32.75H7.21445C7.87734 32.75 8.51328 32.4867 8.98203 32.018L13.9289 27.0719L8.92891 22.0719L3.98242 27.0176ZM20.9016 15.0984C19.4379 13.6336 17.0625 13.6336 15.5988 15.0984L12.5875 18.1098L12.0758 17.5981C11.707 17.2293 11.1129 17.2344 10.75 17.5981L9.14961 19.1985C8.78359 19.5645 8.78359 20.1582 9.14961 20.5242L15.4754 26.85C15.8441 27.2188 16.4383 27.2137 16.8012 26.85L18.4016 25.25C18.7676 24.884 18.7676 24.2902 18.4016 23.9242L17.8898 23.4125L20.9012 20.4012C22.3664 18.9371 22.3664 16.5629 20.9016 15.0984Z" fill="black" fill-opacity="0.5413"/>
</g>
<defs>
<clipPath id="clip0">
<rect width="20" height="20" fill="white" transform="translate(2 14)"/>
</clipPath>
</defs>
</svg>
