<svg width="196" height="48" viewBox="0 0 196 48" fill="none" xmlns="http://www.w3.org/2000/svg">
<path d="M47.6875 25.3906C47.5469 26.5938 47.1016 27.5234 46.3516 28.1797C45.6068 28.8307 44.6146 29.1562 43.375 29.1562C42.0312 29.1562 40.9531 28.6745 40.1406 27.7109C39.3333 26.7474 38.9297 25.4583 38.9297 23.8438V22.75C38.9297 21.6927 39.1172 20.763 39.4922 19.9609C39.8724 19.1589 40.4089 18.5443 41.1016 18.1172C41.7943 17.6849 42.5964 17.4688 43.5078 17.4688C44.7161 17.4688 45.6849 17.8073 46.4141 18.4844C47.1432 19.1562 47.5677 20.0885 47.6875 21.2812H46.1797C46.0495 20.375 45.7656 19.7188 45.3281 19.3125C44.8958 18.9062 44.2891 18.7031 43.5078 18.7031C42.5495 18.7031 41.7969 19.0573 41.25 19.7656C40.7083 20.474 40.4375 21.4818 40.4375 22.7891V23.8906C40.4375 25.125 40.6953 26.1068 41.2109 26.8359C41.7266 27.5651 42.4479 27.9297 43.375 27.9297C44.2083 27.9297 44.8464 27.7422 45.2891 27.3672C45.737 26.987 46.0339 26.3281 46.1797 25.3906H47.6875ZM54.7344 28.1641C54.1719 28.8255 53.3464 29.1562 52.2578 29.1562C51.3568 29.1562 50.6693 28.8958 50.1953 28.375C49.7266 27.849 49.4896 27.0729 49.4844 26.0469V20.5469H50.9297V26.0078C50.9297 27.2891 51.4505 27.9297 52.4922 27.9297C53.5964 27.9297 54.3307 27.5182 54.6953 26.6953V20.5469H56.1406V29H54.7656L54.7344 28.1641ZM62.4297 21.8438C62.2109 21.8073 61.974 21.7891 61.7188 21.7891C60.7708 21.7891 60.1276 22.1927 59.7891 23V29H58.3438V20.5469H59.75L59.7734 21.5234C60.2474 20.7682 60.9193 20.3906 61.7891 20.3906C62.0703 20.3906 62.2839 20.4271 62.4297 20.5V21.8438ZM67.8516 21.8438C67.6328 21.8073 67.3958 21.7891 67.1406 21.7891C66.1927 21.7891 65.5495 22.1927 65.2109 23V29H63.7656V20.5469H65.1719L65.1953 21.5234C65.6693 20.7682 66.3411 20.3906 67.2109 20.3906C67.4922 20.3906 67.7057 20.4271 67.8516 20.5V21.8438ZM72.5391 29.1562C71.3932 29.1562 70.4609 28.7812 69.7422 28.0312C69.0234 27.276 68.6641 26.2682 68.6641 25.0078V24.7422C68.6641 23.9036 68.8229 23.1562 69.1406 22.5C69.4635 21.8385 69.9115 21.3229 70.4844 20.9531C71.0625 20.5781 71.6875 20.3906 72.3594 20.3906C73.4583 20.3906 74.3125 20.7526 74.9219 21.4766C75.5312 22.2005 75.8359 23.237 75.8359 24.5859V25.1875H70.1094C70.1302 26.0208 70.3724 26.6953 70.8359 27.2109C71.3047 27.7214 71.8984 27.9766 72.6172 27.9766C73.1276 27.9766 73.5599 27.8724 73.9141 27.6641C74.2682 27.4557 74.5781 27.1797 74.8438 26.8359L75.7266 27.5234C75.0182 28.612 73.9557 29.1562 72.5391 29.1562ZM72.3594 21.5781C71.776 21.5781 71.2865 21.7917 70.8906 22.2188C70.4948 22.6406 70.25 23.2344 70.1562 24H74.3906V23.8906C74.349 23.1562 74.151 22.5885 73.7969 22.1875C73.4427 21.7812 72.9635 21.5781 72.3594 21.5781ZM78.8828 20.5469L78.9297 21.6094C79.5755 20.7969 80.4193 20.3906 81.4609 20.3906C83.2474 20.3906 84.1484 21.3984 84.1641 23.4141V29H82.7188V23.4062C82.7135 22.7969 82.5729 22.3464 82.2969 22.0547C82.026 21.763 81.6016 21.6172 81.0234 21.6172C80.5547 21.6172 80.1432 21.7422 79.7891 21.9922C79.4349 22.2422 79.1589 22.5703 78.9609 22.9766V29H77.5156V20.5469H78.8828ZM88.3047 18.5V20.5469H89.8828V21.6641H88.3047V26.9062C88.3047 27.2448 88.375 27.5 88.5156 27.6719C88.6562 27.8385 88.8958 27.9219 89.2344 27.9219C89.401 27.9219 89.6302 27.8906 89.9219 27.8281V29C89.5417 29.1042 89.1719 29.1562 88.8125 29.1562C88.1667 29.1562 87.6797 28.9609 87.3516 28.5703C87.0234 28.1797 86.8594 27.625 86.8594 26.9062V21.6641H85.3203V20.5469H86.8594V18.5H88.3047ZM98.9375 27.9766C99.4531 27.9766 99.9036 27.8203 100.289 27.5078C100.674 27.1953 100.888 26.8047 100.93 26.3359H102.297C102.271 26.8203 102.104 27.2812 101.797 27.7188C101.49 28.1562 101.078 28.5052 100.562 28.7656C100.052 29.026 99.5104 29.1562 98.9375 29.1562C97.7865 29.1562 96.8698 28.7734 96.1875 28.0078C95.5104 27.237 95.1719 26.1849 95.1719 24.8516V24.6094C95.1719 23.7865 95.3229 23.0547 95.625 22.4141C95.9271 21.7734 96.3594 21.276 96.9219 20.9219C97.4896 20.5677 98.1589 20.3906 98.9297 20.3906C99.8776 20.3906 100.664 20.6745 101.289 21.2422C101.919 21.8099 102.255 22.5469 102.297 23.4531H100.93C100.888 22.9062 100.68 22.4583 100.305 22.1094C99.9349 21.7552 99.4766 21.5781 98.9297 21.5781C98.1953 21.5781 97.625 21.8438 97.2188 22.375C96.8177 22.901 96.6172 23.6641 96.6172 24.6641V24.9375C96.6172 25.9115 96.8177 26.6615 97.2188 27.1875C97.6198 27.7135 98.1927 27.9766 98.9375 27.9766ZM103.539 24.6953C103.539 23.8672 103.701 23.1224 104.023 22.4609C104.352 21.7995 104.805 21.2891 105.383 20.9297C105.966 20.5703 106.63 20.3906 107.375 20.3906C108.526 20.3906 109.456 20.7891 110.164 21.5859C110.878 22.3828 111.234 23.4427 111.234 24.7656V24.8672C111.234 25.6901 111.076 26.4297 110.758 27.0859C110.445 27.737 109.995 28.2448 109.406 28.6094C108.823 28.974 108.151 29.1562 107.391 29.1562C106.245 29.1562 105.315 28.7578 104.602 27.9609C103.893 27.1641 103.539 26.1094 103.539 24.7969V24.6953ZM104.992 24.8672C104.992 25.8047 105.208 26.5573 105.641 27.125C106.078 27.6927 106.661 27.9766 107.391 27.9766C108.125 27.9766 108.708 27.6901 109.141 27.1172C109.573 26.5391 109.789 25.7318 109.789 24.6953C109.789 23.7682 109.568 23.0182 109.125 22.4453C108.688 21.8672 108.104 21.5781 107.375 21.5781C106.661 21.5781 106.086 21.862 105.648 22.4297C105.211 22.9974 104.992 23.8099 104.992 24.8672ZM114.617 29H113.172V17H114.617V29ZM116.555 24.6953C116.555 23.8672 116.716 23.1224 117.039 22.4609C117.367 21.7995 117.82 21.2891 118.398 20.9297C118.982 20.5703 119.646 20.3906 120.391 20.3906C121.542 20.3906 122.471 20.7891 123.18 21.5859C123.893 22.3828 124.25 23.4427 124.25 24.7656V24.8672C124.25 25.6901 124.091 26.4297 123.773 27.0859C123.461 27.737 123.01 28.2448 122.422 28.6094C121.839 28.974 121.167 29.1562 120.406 29.1562C119.26 29.1562 118.331 28.7578 117.617 27.9609C116.909 27.1641 116.555 26.1094 116.555 24.7969V24.6953ZM118.008 24.8672C118.008 25.8047 118.224 26.5573 118.656 27.125C119.094 27.6927 119.677 27.9766 120.406 27.9766C121.141 27.9766 121.724 27.6901 122.156 27.1172C122.589 26.5391 122.805 25.7318 122.805 24.6953C122.805 23.7682 122.583 23.0182 122.141 22.4453C121.703 21.8672 121.12 21.5781 120.391 21.5781C119.677 21.5781 119.102 21.862 118.664 22.4297C118.227 22.9974 118.008 23.8099 118.008 24.8672ZM130.148 21.8438C129.93 21.8073 129.693 21.7891 129.438 21.7891C128.49 21.7891 127.846 22.1927 127.508 23V29H126.062V20.5469H127.469L127.492 21.5234C127.966 20.7682 128.638 20.3906 129.508 20.3906C129.789 20.3906 130.003 20.4271 130.148 20.5V21.8438Z" fill="black" fill-opacity="0.541327"/>
<circle cx="10" cy="24" r="9.5" fill="#C4C4C4" stroke="black"/>
</svg>
