<svg width="196" height="48" viewBox="0 0 196 48" fill="none" xmlns="http://www.w3.org/2000/svg">
<path d="M60.2577 17.625L63.9764 26.9062L67.6952 17.625H69.6405V29H68.1405V24.5703L68.2811 19.7891L64.5468 29H63.3983L59.6718 19.8125L59.8202 24.5703V29H58.3202V17.625H60.2577ZM71.6796 24.6953C71.6796 23.8672 71.841 23.1224 72.1639 22.4609C72.4921 21.7995 72.9452 21.2891 73.5233 20.9297C74.1066 20.5703 74.7707 20.3906 75.5155 20.3906C76.6665 20.3906 77.5962 20.7891 78.3046 21.5859C79.0181 22.3828 79.3749 23.4427 79.3749 24.7656V24.8672C79.3749 25.6901 79.216 26.4297 78.8983 27.0859C78.5858 27.737 78.1353 28.2448 77.5468 28.6094C76.9634 28.974 76.2915 29.1562 75.5311 29.1562C74.3853 29.1562 73.4556 28.7578 72.7421 27.9609C72.0337 27.1641 71.6796 26.1094 71.6796 24.7969V24.6953ZM73.1327 24.8672C73.1327 25.8047 73.3488 26.5573 73.7811 27.125C74.2186 27.6927 74.802 27.9766 75.5311 27.9766C76.2655 27.9766 76.8488 27.6901 77.2811 27.1172C77.7134 26.5391 77.9296 25.7318 77.9296 24.6953C77.9296 23.7682 77.7082 23.0182 77.2655 22.4453C76.828 21.8672 76.2447 21.5781 75.5155 21.5781C74.802 21.5781 74.2264 21.862 73.7889 22.4297C73.3514 22.9974 73.1327 23.8099 73.1327 24.8672ZM83.8514 27.0391L85.9452 20.5469H87.4218L84.3905 29H83.2889L80.2264 20.5469H81.703L83.8514 27.0391ZM92.2108 29.1562C91.065 29.1562 90.1327 28.7812 89.4139 28.0312C88.6952 27.276 88.3358 26.2682 88.3358 25.0078V24.7422C88.3358 23.9036 88.4947 23.1562 88.8124 22.5C89.1353 21.8385 89.5832 21.3229 90.1561 20.9531C90.7343 20.5781 91.3593 20.3906 92.0311 20.3906C93.1301 20.3906 93.9843 20.7526 94.5936 21.4766C95.203 22.2005 95.5077 23.237 95.5077 24.5859V25.1875H89.7811C89.802 26.0208 90.0441 26.6953 90.5077 27.2109C90.9764 27.7214 91.5702 27.9766 92.2889 27.9766C92.7994 27.9766 93.2316 27.8724 93.5858 27.6641C93.94 27.4557 94.2499 27.1797 94.5155 26.8359L95.3983 27.5234C94.69 28.612 93.6275 29.1562 92.2108 29.1562ZM92.0311 21.5781C91.4478 21.5781 90.9582 21.7917 90.5624 22.2188C90.1665 22.6406 89.9218 23.2344 89.828 24H94.0624V23.8906C94.0207 23.1562 93.8228 22.5885 93.4686 22.1875C93.1145 21.7812 92.6353 21.5781 92.0311 21.5781Z" fill="black" fill-opacity="0.541327"/>
<g clip-path="url(#clip0)">
<path d="M15.7571 29.6311L12.6636 32.7247C12.2974 33.0909 11.7039 33.0909 11.3377 32.7247L8.24414 29.6311C7.65355 29.0406 8.07184 28.0307 8.90707 28.0308H10.9056L10.9055 24.093H6.96789V26.0916C6.96789 26.9268 5.95809 27.3451 5.36746 26.7545L2.27387 23.6609C1.90773 23.2948 1.90773 22.7012 2.27387 22.3351L5.36746 19.2415C5.95805 18.6509 6.96789 19.0692 6.96789 19.9044V21.9055H10.9055V17.9679H8.90438C8.06914 17.9679 7.65086 16.9581 8.24145 16.3675L11.335 13.2739C11.7012 12.9077 12.2947 12.9077 12.6609 13.2739L15.7545 16.3675C16.345 16.958 15.9268 17.9679 15.0915 17.9679H13.093V21.9055H17.0307V19.907C17.0307 19.0718 18.0405 18.6535 18.6311 19.2441L21.7246 22.3377C22.0908 22.7038 22.0908 23.2974 21.7246 23.6635L18.6311 26.7571C18.0405 27.3477 17.0306 26.9294 17.0307 26.0942V24.093H13.093V28.0307H15.0942C15.9295 28.0307 16.3477 29.0405 15.7571 29.6311Z" fill="black" fill-opacity="0.5413"/>
</g>
<defs>
<clipPath id="clip0">
<rect width="20" height="20" fill="white" transform="translate(2 13)"/>
</clipPath>
</defs>
</svg>
