<svg width="196" height="48" viewBox="0 0 196 48" fill="none" xmlns="http://www.w3.org/2000/svg">
<path d="M59.8202 24.5469V29H58.3202V17.625H62.5155C63.7603 17.625 64.7343 17.9427 65.4374 18.5781C66.1457 19.2135 66.4999 20.0547 66.4999 21.1016C66.4999 22.2057 66.1535 23.0573 65.4608 23.6562C64.7733 24.25 63.7863 24.5469 62.4999 24.5469H59.8202ZM59.8202 23.3203H62.5155C63.3176 23.3203 63.9322 23.1328 64.3593 22.7578C64.7863 22.3776 64.9999 21.8307 64.9999 21.1172C64.9999 20.4401 64.7863 19.8984 64.3593 19.4922C63.9322 19.0859 63.3462 18.875 62.6014 18.8594H59.8202V23.3203ZM73.3124 29C73.229 28.8333 73.1613 28.5365 73.1093 28.1094C72.4374 28.8073 71.6353 29.1562 70.703 29.1562C69.8697 29.1562 69.1848 28.9219 68.6483 28.4531C68.1171 27.9792 67.8514 27.3802 67.8514 26.6562C67.8514 25.776 68.1848 25.0938 68.8514 24.6094C69.5233 24.1198 70.466 23.875 71.6796 23.875H73.0858V23.2109C73.0858 22.7057 72.9348 22.3047 72.6327 22.0078C72.3306 21.7057 71.8853 21.5547 71.2968 21.5547C70.7811 21.5547 70.3488 21.6849 69.9999 21.9453C69.6509 22.2057 69.4764 22.5208 69.4764 22.8906H68.0233C68.0233 22.4688 68.1718 22.0625 68.4686 21.6719C68.7707 21.276 69.177 20.9635 69.6874 20.7344C70.203 20.5052 70.7681 20.3906 71.3827 20.3906C72.3566 20.3906 73.1197 20.6354 73.6718 21.125C74.2238 21.6094 74.5103 22.2786 74.5311 23.1328V27.0234C74.5311 27.7995 74.6301 28.4167 74.828 28.875V29H73.3124ZM70.9139 27.8984C71.3671 27.8984 71.7968 27.7812 72.203 27.5469C72.6093 27.3125 72.9035 27.0078 73.0858 26.6328V24.8984H71.953C70.1822 24.8984 69.2968 25.4167 69.2968 26.4531C69.2968 26.9062 69.4478 27.2604 69.7499 27.5156C70.052 27.7708 70.44 27.8984 70.9139 27.8984ZM78.3671 29H76.9218V20.5469H78.3671V29ZM76.8046 18.3047C76.8046 18.0703 76.8749 17.8724 77.0155 17.7109C77.1613 17.5495 77.3749 17.4688 77.6561 17.4688C77.9374 17.4688 78.1509 17.5495 78.2968 17.7109C78.4426 17.8724 78.5155 18.0703 78.5155 18.3047C78.5155 18.5391 78.4426 18.7344 78.2968 18.8906C78.1509 19.0469 77.9374 19.125 77.6561 19.125C77.3749 19.125 77.1613 19.0469 77.0155 18.8906C76.8749 18.7344 76.8046 18.5391 76.8046 18.3047ZM82.0546 20.5469L82.1014 21.6094C82.7473 20.7969 83.591 20.3906 84.6327 20.3906C86.4191 20.3906 87.3202 21.3984 87.3358 23.4141V29H85.8905V23.4062C85.8853 22.7969 85.7447 22.3464 85.4686 22.0547C85.1978 21.763 84.7733 21.6172 84.1952 21.6172C83.7264 21.6172 83.315 21.7422 82.9608 21.9922C82.6066 22.2422 82.3306 22.5703 82.1327 22.9766V29H80.6874V20.5469H82.0546ZM91.4764 18.5V20.5469H93.0546V21.6641H91.4764V26.9062C91.4764 27.2448 91.5468 27.5 91.6874 27.6719C91.828 27.8385 92.0676 27.9219 92.4061 27.9219C92.5728 27.9219 92.802 27.8906 93.0936 27.8281V29C92.7134 29.1042 92.3436 29.1562 91.9843 29.1562C91.3384 29.1562 90.8514 28.9609 90.5233 28.5703C90.1952 28.1797 90.0311 27.625 90.0311 26.9062V21.6641H88.4921V20.5469H90.0311V18.5H91.4764ZM105.875 24.8672C105.875 26.1589 105.578 27.1979 104.984 27.9844C104.391 28.7656 103.594 29.1562 102.594 29.1562C101.526 29.1562 100.7 28.7786 100.117 28.0234L100.047 29H98.7186V17H100.164V21.4766C100.747 20.7526 101.552 20.3906 102.578 20.3906C103.604 20.3906 104.409 20.7786 104.992 21.5547C105.581 22.3307 105.875 23.3932 105.875 24.7422V24.8672ZM104.43 24.7031C104.43 23.7188 104.239 22.9583 103.859 22.4219C103.479 21.8854 102.932 21.6172 102.219 21.6172C101.266 21.6172 100.581 22.0599 100.164 22.9453V26.6016C100.607 27.487 101.297 27.9297 102.234 27.9297C102.927 27.9297 103.466 27.6615 103.851 27.125C104.237 26.5885 104.43 25.7812 104.43 24.7031ZM112.922 28.1641C112.359 28.8255 111.534 29.1562 110.445 29.1562C109.544 29.1562 108.857 28.8958 108.383 28.375C107.914 27.849 107.677 27.0729 107.672 26.0469V20.5469H109.117V26.0078C109.117 27.2891 109.638 27.9297 110.68 27.9297C111.784 27.9297 112.518 27.5182 112.883 26.6953V20.5469H114.328V29H112.953L112.922 28.1641ZM119.922 27.9766C120.437 27.9766 120.888 27.8203 121.273 27.5078C121.659 27.1953 121.872 26.8047 121.914 26.3359H123.281C123.255 26.8203 123.088 27.2812 122.781 27.7188C122.474 28.1562 122.062 28.5052 121.547 28.7656C121.036 29.026 120.495 29.1562 119.922 29.1562C118.771 29.1562 117.854 28.7734 117.172 28.0078C116.495 27.237 116.156 26.1849 116.156 24.8516V24.6094C116.156 23.7865 116.307 23.0547 116.609 22.4141C116.911 21.7734 117.344 21.276 117.906 20.9219C118.474 20.5677 119.143 20.3906 119.914 20.3906C120.862 20.3906 121.648 20.6745 122.273 21.2422C122.904 21.8099 123.239 22.5469 123.281 23.4531H121.914C121.872 22.9062 121.664 22.4583 121.289 22.1094C120.919 21.7552 120.461 21.5781 119.914 21.5781C119.18 21.5781 118.609 21.8438 118.203 22.375C117.802 22.901 117.601 23.6641 117.601 24.6641V24.9375C117.601 25.9115 117.802 26.6615 118.203 27.1875C118.604 27.7135 119.177 27.9766 119.922 27.9766ZM127.266 25.0859L126.359 26.0312V29H124.914V17H126.359V24.2578L127.133 23.3281L129.766 20.5469H131.523L128.234 24.0781L131.906 29H130.211L127.266 25.0859ZM136.367 29.1562C135.221 29.1562 134.289 28.7812 133.57 28.0312C132.851 27.276 132.492 26.2682 132.492 25.0078V24.7422C132.492 23.9036 132.651 23.1562 132.969 22.5C133.292 21.8385 133.739 21.3229 134.312 20.9531C134.891 20.5781 135.516 20.3906 136.187 20.3906C137.286 20.3906 138.141 20.7526 138.75 21.4766C139.359 22.2005 139.664 23.237 139.664 24.5859V25.1875H133.937C133.958 26.0208 134.2 26.6953 134.664 27.2109C135.133 27.7214 135.726 27.9766 136.445 27.9766C136.956 27.9766 137.388 27.8724 137.742 27.6641C138.096 27.4557 138.406 27.1797 138.672 26.8359L139.555 27.5234C138.846 28.612 137.784 29.1562 136.367 29.1562ZM136.187 21.5781C135.604 21.5781 135.114 21.7917 134.719 22.2188C134.323 22.6406 134.078 23.2344 133.984 24H138.219V23.8906C138.177 23.1562 137.979 22.5885 137.625 22.1875C137.271 21.7812 136.792 21.5781 136.187 21.5781ZM143.305 18.5V20.5469H144.883V21.6641H143.305V26.9062C143.305 27.2448 143.375 27.5 143.516 27.6719C143.656 27.8385 143.896 27.9219 144.234 27.9219C144.401 27.9219 144.63 27.8906 144.922 27.8281V29C144.542 29.1042 144.172 29.1562 143.812 29.1562C143.167 29.1562 142.68 28.9609 142.351 28.5703C142.023 28.1797 141.859 27.625 141.859 26.9062V21.6641H140.32V20.5469H141.859V18.5H143.305Z" fill="black" fill-opacity="0.541327"/>
<g clip-path="url(#clip0)">
<path d="M19.7782 26.25C19.7782 26.25 17.556 29.5072 17.556 30.75C17.556 31.9928 18.5511 33 19.7782 33C21.0053 33 22.0004 31.9928 22.0004 30.75C22.0004 29.5072 19.7782 26.25 19.7782 26.25ZM19.4528 22.631L12.2414 15.3294C12.0244 15.1097 11.74 15 11.4556 15C11.1712 15 10.8869 15.1097 10.6702 15.3294L7.83755 18.1975L4.84519 15.1673C4.62818 14.9476 4.27644 14.9476 4.05978 15.1673L3.27436 15.9626C3.05769 16.1823 3.05769 16.5384 3.27436 16.7578L6.26707 19.7876L2.97679 23.119C1.67505 24.4366 1.67505 26.5734 2.97679 27.8914L7.04589 32.0114C7.69658 32.6702 8.54971 33 9.40248 33C10.2556 33 11.1084 32.6706 11.7591 32.0114L19.4525 24.2218C19.8865 23.7824 19.8865 23.0705 19.4528 22.631ZM15.4174 25.1261H4.28964C4.33686 24.9911 4.4136 24.8455 4.54762 24.7102L5.00422 24.2479L7.8379 21.3787L9.87262 23.4389C10.3063 23.878 11.0098 23.878 11.4435 23.4389C11.8771 22.9998 11.8771 22.2875 11.4435 21.8484L9.40874 19.7883L11.4556 17.7158L17.0959 23.4266L15.4174 25.1261Z" fill="black" fill-opacity="0.5413"/>
</g>
<defs>
<clipPath id="clip0">
<rect width="20" height="18" fill="white" transform="translate(2 15)"/>
</clipPath>
</defs>
</svg>
