<svg width="196" height="48" viewBox="0 0 196 48" fill="none" xmlns="http://www.w3.org/2000/svg">
<path d="M42.8203 24.5469V29H41.3203V17.625H45.5156C46.7604 17.625 47.7344 17.9427 48.4375 18.5781C49.1458 19.2135 49.5 20.0547 49.5 21.1016C49.5 22.2057 49.1536 23.0573 48.4609 23.6562C47.7734 24.25 46.7865 24.5469 45.5 24.5469H42.8203ZM42.8203 23.3203H45.5156C46.3177 23.3203 46.9323 23.1328 47.3594 22.7578C47.7865 22.3776 48 21.8307 48 21.1172C48 20.4401 47.7865 19.8984 47.3594 19.4922C46.9323 19.0859 46.3464 18.875 45.6016 18.8594H42.8203V23.3203ZM55.2734 21.8438C55.0547 21.8073 54.8177 21.7891 54.5625 21.7891C53.6146 21.7891 52.9714 22.1927 52.6328 23V29H51.1875V20.5469H52.5938L52.6172 21.5234C53.0911 20.7682 53.763 20.3906 54.6328 20.3906C54.9141 20.3906 55.1276 20.4271 55.2734 20.5V21.8438ZM59.9609 29.1562C58.8151 29.1562 57.8828 28.7812 57.1641 28.0312C56.4453 27.276 56.0859 26.2682 56.0859 25.0078V24.7422C56.0859 23.9036 56.2448 23.1562 56.5625 22.5C56.8854 21.8385 57.3333 21.3229 57.9062 20.9531C58.4844 20.5781 59.1094 20.3906 59.7812 20.3906C60.8802 20.3906 61.7344 20.7526 62.3438 21.4766C62.9531 22.2005 63.2578 23.237 63.2578 24.5859V25.1875H57.5312C57.5521 26.0208 57.7943 26.6953 58.2578 27.2109C58.7266 27.7214 59.3203 27.9766 60.0391 27.9766C60.5495 27.9766 60.9818 27.8724 61.3359 27.6641C61.6901 27.4557 62 27.1797 62.2656 26.8359L63.1484 27.5234C62.4401 28.612 61.3776 29.1562 59.9609 29.1562ZM59.7812 21.5781C59.1979 21.5781 58.7083 21.7917 58.3125 22.2188C57.9167 22.6406 57.6719 23.2344 57.5781 24H61.8125V23.8906C61.7708 23.1562 61.5729 22.5885 61.2188 22.1875C60.8646 21.7812 60.3854 21.5781 59.7812 21.5781ZM67.6172 27.0391L69.7109 20.5469H71.1875L68.1562 29H67.0547L63.9922 20.5469H65.4688L67.6172 27.0391ZM79.9375 27.9766C80.4531 27.9766 80.9036 27.8203 81.2891 27.5078C81.6745 27.1953 81.888 26.8047 81.9297 26.3359H83.2969C83.2708 26.8203 83.1042 27.2812 82.7969 27.7188C82.4896 28.1562 82.0781 28.5052 81.5625 28.7656C81.0521 29.026 80.5104 29.1562 79.9375 29.1562C78.7865 29.1562 77.8698 28.7734 77.1875 28.0078C76.5104 27.237 76.1719 26.1849 76.1719 24.8516V24.6094C76.1719 23.7865 76.3229 23.0547 76.625 22.4141C76.9271 21.7734 77.3594 21.276 77.9219 20.9219C78.4896 20.5677 79.1589 20.3906 79.9297 20.3906C80.8776 20.3906 81.6641 20.6745 82.2891 21.2422C82.9193 21.8099 83.2552 22.5469 83.2969 23.4531H81.9297C81.888 22.9062 81.6797 22.4583 81.3047 22.1094C80.9349 21.7552 80.4766 21.5781 79.9297 21.5781C79.1953 21.5781 78.625 21.8438 78.2188 22.375C77.8177 22.901 77.6172 23.6641 77.6172 24.6641V24.9375C77.6172 25.9115 77.8177 26.6615 78.2188 27.1875C78.6198 27.7135 79.1927 27.9766 79.9375 27.9766ZM84.5391 24.6953C84.5391 23.8672 84.7005 23.1224 85.0234 22.4609C85.3516 21.7995 85.8047 21.2891 86.3828 20.9297C86.9661 20.5703 87.6302 20.3906 88.375 20.3906C89.526 20.3906 90.4557 20.7891 91.1641 21.5859C91.8776 22.3828 92.2344 23.4427 92.2344 24.7656V24.8672C92.2344 25.6901 92.0755 26.4297 91.7578 27.0859C91.4453 27.737 90.9948 28.2448 90.4062 28.6094C89.8229 28.974 89.151 29.1562 88.3906 29.1562C87.2448 29.1562 86.3151 28.7578 85.6016 27.9609C84.8932 27.1641 84.5391 26.1094 84.5391 24.7969V24.6953ZM85.9922 24.8672C85.9922 25.8047 86.2083 26.5573 86.6406 27.125C87.0781 27.6927 87.6615 27.9766 88.3906 27.9766C89.125 27.9766 89.7083 27.6901 90.1406 27.1172C90.5729 26.5391 90.7891 25.7318 90.7891 24.6953C90.7891 23.7682 90.5677 23.0182 90.125 22.4453C89.6875 21.8672 89.1042 21.5781 88.375 21.5781C87.6615 21.5781 87.0859 21.862 86.6484 22.4297C86.2109 22.9974 85.9922 23.8099 85.9922 24.8672ZM95.6172 29H94.1719V17H95.6172V29ZM97.5547 24.6953C97.5547 23.8672 97.7161 23.1224 98.0391 22.4609C98.3672 21.7995 98.8203 21.2891 99.3984 20.9297C99.9818 20.5703 100.646 20.3906 101.391 20.3906C102.542 20.3906 103.471 20.7891 104.18 21.5859C104.893 22.3828 105.25 23.4427 105.25 24.7656V24.8672C105.25 25.6901 105.091 26.4297 104.773 27.0859C104.461 27.737 104.01 28.2448 103.422 28.6094C102.839 28.974 102.167 29.1562 101.406 29.1562C100.26 29.1562 99.3307 28.7578 98.6172 27.9609C97.9089 27.1641 97.5547 26.1094 97.5547 24.7969V24.6953ZM99.0078 24.8672C99.0078 25.8047 99.224 26.5573 99.6562 27.125C100.094 27.6927 100.677 27.9766 101.406 27.9766C102.141 27.9766 102.724 27.6901 103.156 27.1172C103.589 26.5391 103.805 25.7318 103.805 24.6953C103.805 23.7682 103.583 23.0182 103.141 22.4453C102.703 21.8672 102.12 21.5781 101.391 21.5781C100.677 21.5781 100.102 21.862 99.6641 22.4297C99.2266 22.9974 99.0078 23.8099 99.0078 24.8672ZM111.148 21.8438C110.93 21.8073 110.693 21.7891 110.438 21.7891C109.49 21.7891 108.846 22.1927 108.508 23V29H107.062V20.5469H108.469L108.492 21.5234C108.966 20.7682 109.638 20.3906 110.508 20.3906C110.789 20.3906 111.003 20.4271 111.148 20.5V21.8438Z" fill="black" fill-opacity="0.541327"/>
<circle cx="12" cy="24" r="9.5" fill="#41F795" stroke="black"/>
</svg>
