<svg width="196" height="48" viewBox="0 0 196 48" fill="none" xmlns="http://www.w3.org/2000/svg">
<path d="M45.1797 21.8438C44.9609 21.8073 44.724 21.7891 44.4688 21.7891C43.5208 21.7891 42.8776 22.1927 42.5391 23V29H41.0938V20.5469H42.5L42.5234 21.5234C42.9974 20.7682 43.6693 20.3906 44.5391 20.3906C44.8203 20.3906 45.0339 20.4271 45.1797 20.5V21.8438ZM49.8672 29.1562C48.7214 29.1562 47.7891 28.7812 47.0703 28.0312C46.3516 27.276 45.9922 26.2682 45.9922 25.0078V24.7422C45.9922 23.9036 46.151 23.1562 46.4688 22.5C46.7917 21.8385 47.2396 21.3229 47.8125 20.9531C48.3906 20.5781 49.0156 20.3906 49.6875 20.3906C50.7865 20.3906 51.6406 20.7526 52.25 21.4766C52.8594 22.2005 53.1641 23.237 53.1641 24.5859V25.1875H47.4375C47.4583 26.0208 47.7005 26.6953 48.1641 27.2109C48.6328 27.7214 49.2266 27.9766 49.9453 27.9766C50.4557 27.9766 50.888 27.8724 51.2422 27.6641C51.5964 27.4557 51.9062 27.1797 52.1719 26.8359L53.0547 27.5234C52.3464 28.612 51.2839 29.1562 49.8672 29.1562ZM49.6875 21.5781C49.1042 21.5781 48.6146 21.7917 48.2188 22.2188C47.8229 22.6406 47.5781 23.2344 47.4844 24H51.7188V23.8906C51.6771 23.1562 51.4792 22.5885 51.125 22.1875C50.7708 21.7812 50.2917 21.5781 49.6875 21.5781ZM54.4922 24.7031C54.4922 23.4062 54.7995 22.3646 55.4141 21.5781C56.0286 20.7865 56.8333 20.3906 57.8281 20.3906C58.8177 20.3906 59.6016 20.7292 60.1797 21.4062V17H61.625V29H60.2969L60.2266 28.0938C59.6484 28.8021 58.8438 29.1562 57.8125 29.1562C56.8333 29.1562 56.0339 28.7552 55.4141 27.9531C54.7995 27.151 54.4922 26.1042 54.4922 24.8125V24.7031ZM55.9375 24.8672C55.9375 25.8255 56.1354 26.5755 56.5312 27.1172C56.9271 27.6589 57.474 27.9297 58.1719 27.9297C59.0885 27.9297 59.7578 27.5182 60.1797 26.6953V22.8125C59.7474 22.0156 59.0833 21.6172 58.1875 21.6172C57.4792 21.6172 56.9271 21.8906 56.5312 22.4375C56.1354 22.9844 55.9375 23.7943 55.9375 24.8672Z" fill="black" fill-opacity="0.541327"/>
<circle cx="12" cy="24" r="9.5" fill="#F74141" stroke="black"/>
</svg>
